<?xml version="1.0" encoding="UTF-8"?>
<svg id="_图层_1" data-name="图层 1" xmlns="http://www.w3.org/2000/svg" viewBox="0 0 347.48 108.64">
  <path d="M64.38,72.16h.02c3.38,0,6.13,3.55,6.14,7.93.01,4.4-2.73,7.97-6.13,7.98" style="fill: none; stroke: #fcee21; stroke-miterlimit: 10; stroke-width: 3px;"/>
  <g>
    <rect x="69.59" y="2.97" width="245.04" height="81.7" style="fill: none;"/>
    <path d="M77.58,19.87h37.94v9.37h-26.8v17.82h22.81v9.37h-22.81v26.23h-11.14V19.87Z" style="fill: #fcee21;"/>
    <path d="M123.53,30.33c0-3.22,2.52-5.41,5.91-5.41s5.91,2.19,5.91,5.41-2.52,5.41-5.91,5.41-5.91-2.26-5.91-5.41ZM124.63,42.88h9.56v40.77h-9.56v-40.77Z" style="fill: #fcee21;"/>
    <path d="M146.37,42.88h7.83l.73,5.51h.27c3.65-3.55,7.8-6.51,13.38-6.51,8.73,0,12.55,5.91,12.55,16.2v25.56h-9.56v-24.33c0-6.71-1.93-9.23-6.34-9.23-3.59,0-5.94,1.76-9.3,5.08v28.48h-9.56v-40.77Z" style="fill: #fcee21;"/>
    <path d="M190.36,63.3c0-13.28,8.33-21.41,17.26-21.41,4.61,0,7.54,1.73,10.69,4.48l-.37-6.57v-14.77h9.56v58.63h-7.83l-.73-4.42h-.27c-3.02,3.02-7.2,5.41-11.59,5.41-10.16,0-16.73-7.9-16.73-21.35ZM217.95,72.16v-18.99c-2.79-2.49-5.54-3.39-8.3-3.39-5.18,0-9.46,4.91-9.46,13.41s3.39,13.54,9.26,13.54c3.15,0,5.81-1.39,8.5-4.58Z" style="fill: #fcee21;"/>
    <path d="M236.98,63.3c0-13.25,9.2-21.41,18.79-21.41,11.02,0,16.83,7.97,16.83,19.35,0,1.83-.2,3.65-.42,4.65h-25.88c.8,7.24,5.44,11.35,12.02,11.35,3.49,0,6.47-1.1,9.46-2.95l3.25,5.94c-3.88,2.62-8.8,4.42-13.98,4.42-11.25,0-20.08-7.9-20.08-21.35ZM264.33,59.38c0-6.27-2.79-10.09-8.37-10.09-4.75,0-8.93,3.55-9.76,10.09h18.12Z" style="fill: #fcee21;"/>
    <path d="M281.75,42.88h7.83l.73,7.27h.26c2.91-5.31,7.22-8.27,11.59-8.27,2.07,0,3.39.27,4.61.83l-1.66,8.3c-1.43-.4-2.49-.66-4.18-.66-3.25,0-7.17,2.22-9.63,8.43v24.87h-9.56v-40.77Z" style="fill: #fcee21;"/>
  </g>
  <rect x="75.55" y="88.24" width="245.39" height="5.06" style="fill: #fcee21;"/>
  <g>
    <path d="M45.6,54.58h-24.11l-.03,19.07h43.12V21.03l-43.13.1v20.45s24.15,0,24.15,0c3.59,0,6.5,2.91,6.5,6.5s-2.91,6.5-6.5,6.5Z" style="fill: #fcee21;"/>
    <path d="M77.59,19.95v60.83c0,1.97-.9,3.84-2.44,5.07-1.16.93-2.6,1.43-4.06,1.43-.47,0-.95-.05-1.42-.16l-2.33-.52H15.1c-.31,0-.61-.02-.91-.06-3.23-.38-5.73-3.13-5.73-6.46V13.48c0-2.54,1.48-4.84,3.78-5.9l.21-.1c.85-.39,1.78-.6,2.72-.6h73.63c-1.41-4.01-5.22-6.89-9.71-6.89H10.3C4.61,0,0,4.61,0,10.3v72.71c0,5.69,4.61,10.3,10.3,10.3h68.79c5.69,0,10.3-4.61,10.3-10.3V19.89l-11.8.05Z" style="fill: #fcee21;"/>
  </g>
  <g>
    <rect x="320.46" y="6.48" width="27.03" height="18.28" style="fill: none;"/>
    <path d="M324.76,11.95h-3.78v-1.95h9.87v1.95h-3.78v11.13h-2.32v-11.13Z" style="fill: #fcee21;"/>
    <path d="M333.04,10h2.62l2.31,6.39c.29.83.55,1.71.84,2.57h.08c.29-.86.54-1.74.82-2.57l2.26-6.39h2.62v13.08h-2.13v-5.99c0-1.21.18-2.95.3-4.16h-.08l-1.06,3.04-2.15,5.88h-1.38l-2.16-5.88-1.04-3.04h-.08c.11,1.21.3,2.95.3,4.16v5.99h-2.09v-13.08Z" style="fill: #fcee21;"/>
  </g>
</svg>